{
    "asset" : {
        "copyright" : "wildVeli",
        "generator" : "Khronos glTF Blender I/O v3.2.43",
        "version" : "2.0"
    },
    "scene" : 0,
    "scenes" : [
        {
            "name" : "Scene",
            "nodes" : [
                0,
                1,
                2,
                3,
                4,
                5
            ]
        }
    ],
    "nodes" : [
        {
            "mesh" : 0,
            "name" : "Plane",
            "rotation" : [
                0.5537869930267334,
                0.06614188849925995,
                0.07278744131326675,
                0.8268296122550964
            ],
            "scale" : [
                1,
                6.769843578338623,
                1
            ],
            "translation" : [
                0.8661761283874512,
                -1.1411089897155762,
                0.39818668365478516
            ]
        },
        {
            "mesh" : 1,
            "name" : "Rotor",
            "rotation" : [
                0.4570963978767395,
                -0.7588195204734802,
                -0.4271317422389984,
                0.1811472624540329
            ],
            "scale" : [
                1.36273992061615,
                9.225536346435547,
                1.36273992061615
            ],
            "translation" : [
                -0.3543541431427002,
                6.079387187957764,
                5.37979793548584
            ]
        },
        {
            "mesh" : 2,
            "name" : "Base",
            "translation" : [
                -1.1914191246032715,
                3.3793764114379883,
                7.435707092285156
            ]
        },
        {
            "mesh" : 3,
            "name" : "Rotor.001",
            "rotation" : [
                0.6455727219581604,
                -0.13591641187667847,
                -0.07038905471563339,
                0.7482032179832458
            ],
            "scale" : [
                1.36273992061615,
                9.22553539276123,
                1.36273992061615
            ],
            "translation" : [
                -0.4510812759399414,
                6.304330825805664,
                5.5109405517578125
            ]
        },
        {
            "mesh" : 4,
            "name" : "Rotor.002",
            "rotation" : [
                0.32986143231391907,
                0.7921237349510193,
                0.44073307514190674,
                0.26360154151916504
            ],
            "scale" : [
                1.36273992061615,
                9.225536346435547,
                1.36273992061615
            ],
            "translation" : [
                -0.4270009994506836,
                6.070037364959717,
                5.442310333251953
            ]
        },
        {
            "mesh" : 5,
            "name" : "Elice",
            "rotation" : [
                0.5537869930267334,
                0.06614188849925995,
                0.07278744131326675,
                0.8268296122550964
            ],
            "scale" : [
                1,
                6.769843578338623,
                1
            ],
            "translation" : [
                -0.3953287601470947,
                5.987642288208008,
                5.07139778137207
            ]
        }
    ],
    "animations" : [
        {
            "channels" : [
                {
                    "sampler" : 0,
                    "target" : {
                        "node" : 0,
                        "path" : "translation"
                    }
                },
                {
                    "sampler" : 1,
                    "target" : {
                        "node" : 0,
                        "path" : "rotation"
                    }
                },
                {
                    "sampler" : 2,
                    "target" : {
                        "node" : 0,
                        "path" : "scale"
                    }
                }
            ],
            "name" : "PlaneAction",
            "samplers" : [
                {
                    "input" : 23,
                    "interpolation" : "STEP",
                    "output" : 24
                },
                {
                    "input" : 23,
                    "interpolation" : "STEP",
                    "output" : 25
                },
                {
                    "input" : 23,
                    "interpolation" : "STEP",
                    "output" : 26
                }
            ]
        },
        {
            "channels" : [
                {
                    "sampler" : 0,
                    "target" : {
                        "node" : 1,
                        "path" : "translation"
                    }
                },
                {
                    "sampler" : 1,
                    "target" : {
                        "node" : 1,
                        "path" : "rotation"
                    }
                },
                {
                    "sampler" : 2,
                    "target" : {
                        "node" : 1,
                        "path" : "scale"
                    }
                }
            ],
            "name" : "RotorAction",
            "samplers" : [
                {
                    "input" : 23,
                    "interpolation" : "STEP",
                    "output" : 27
                },
                {
                    "input" : 23,
                    "interpolation" : "STEP",
                    "output" : 28
                },
                {
                    "input" : 23,
                    "interpolation" : "STEP",
                    "output" : 29
                }
            ]
        },
        {
            "channels" : [
                {
                    "sampler" : 0,
                    "target" : {
                        "node" : 3,
                        "path" : "translation"
                    }
                },
                {
                    "sampler" : 1,
                    "target" : {
                        "node" : 3,
                        "path" : "rotation"
                    }
                },
                {
                    "sampler" : 2,
                    "target" : {
                        "node" : 3,
                        "path" : "scale"
                    }
                }
            ],
            "name" : "Rotor.001Action",
            "samplers" : [
                {
                    "input" : 23,
                    "interpolation" : "STEP",
                    "output" : 30
                },
                {
                    "input" : 23,
                    "interpolation" : "STEP",
                    "output" : 31
                },
                {
                    "input" : 23,
                    "interpolation" : "STEP",
                    "output" : 32
                }
            ]
        },
        {
            "channels" : [
                {
                    "sampler" : 0,
                    "target" : {
                        "node" : 4,
                        "path" : "translation"
                    }
                },
                {
                    "sampler" : 1,
                    "target" : {
                        "node" : 4,
                        "path" : "rotation"
                    }
                },
                {
                    "sampler" : 2,
                    "target" : {
                        "node" : 4,
                        "path" : "scale"
                    }
                }
            ],
            "name" : "Rotor.002Action",
            "samplers" : [
                {
                    "input" : 23,
                    "interpolation" : "STEP",
                    "output" : 33
                },
                {
                    "input" : 23,
                    "interpolation" : "STEP",
                    "output" : 34
                },
                {
                    "input" : 23,
                    "interpolation" : "STEP",
                    "output" : 35
                }
            ]
        },
        {
            "channels" : [
                {
                    "sampler" : 0,
                    "target" : {
                        "node" : 5,
                        "path" : "translation"
                    }
                },
                {
                    "sampler" : 1,
                    "target" : {
                        "node" : 5,
                        "path" : "rotation"
                    }
                },
                {
                    "sampler" : 2,
                    "target" : {
                        "node" : 5,
                        "path" : "scale"
                    }
                }
            ],
            "name" : "EliceAction",
            "samplers" : [
                {
                    "input" : 23,
                    "interpolation" : "STEP",
                    "output" : 36
                },
                {
                    "input" : 23,
                    "interpolation" : "STEP",
                    "output" : 37
                },
                {
                    "input" : 23,
                    "interpolation" : "STEP",
                    "output" : 38
                }
            ]
        }
    ],
    "materials" : [
        {
            "doubleSided" : true,
            "name" : "Material",
            "pbrMetallicRoughness" : {
                "baseColorFactor" : [
                    0.0029463276732712984,
                    0.36337292194366455,
                    0.0008462730911560357,
                    1
                ],
                "metallicFactor" : 0,
                "roughnessFactor" : 0.5
            }
        },
        {
            "doubleSided" : true,
            "name" : "Material.001",
            "pbrMetallicRoughness" : {
                "baseColorFactor" : [
                    0.0034657339565455914,
                    0.0034657339565455914,
                    0.0034657339565455914,
                    1
                ],
                "metallicFactor" : 0,
                "roughnessFactor" : 0.5
            }
        }
    ],
    "meshes" : [
        {
            "name" : "Cylinder",
            "primitives" : [
                {
                    "attributes" : {
                        "POSITION" : 0,
                        "NORMAL" : 1,
                        "TEXCOORD_0" : 2
                    },
                    "indices" : 3,
                    "material" : 0
                }
            ]
        },
        {
            "name" : "Cylinder.001",
            "primitives" : [
                {
                    "attributes" : {
                        "POSITION" : 4,
                        "NORMAL" : 5,
                        "TEXCOORD_0" : 6
                    },
                    "indices" : 7
                }
            ]
        },
        {
            "name" : "Circle",
            "primitives" : [
                {
                    "attributes" : {
                        "POSITION" : 8,
                        "NORMAL" : 9,
                        "TEXCOORD_0" : 10
                    },
                    "indices" : 11
                }
            ]
        },
        {
            "name" : "Cylinder.002",
            "primitives" : [
                {
                    "attributes" : {
                        "POSITION" : 12,
                        "NORMAL" : 13,
                        "TEXCOORD_0" : 14
                    },
                    "indices" : 15
                }
            ]
        },
        {
            "name" : "Cylinder.003",
            "primitives" : [
                {
                    "attributes" : {
                        "POSITION" : 16,
                        "NORMAL" : 17,
                        "TEXCOORD_0" : 18
                    },
                    "indices" : 15
                }
            ]
        },
        {
            "name" : "Cylinder.004",
            "primitives" : [
                {
                    "attributes" : {
                        "POSITION" : 19,
                        "NORMAL" : 20,
                        "TEXCOORD_0" : 21
                    },
                    "indices" : 22,
                    "material" : 1
                }
            ]
        }
    ],
    "accessors" : [
        {
            "bufferView" : 0,
            "componentType" : 5126,
            "count" : 16322,
            "max" : [
                10.413254737854004,
                1.030875325202942,
                -3.7298641204833984
            ],
            "min" : [
                -10.413254737854004,
                -0.9521967172622681,
                -6.850671768188477
            ],
            "type" : "VEC3"
        },
        {
            "bufferView" : 1,
            "componentType" : 5126,
            "count" : 16322,
            "type" : "VEC3"
        },
        {
            "bufferView" : 2,
            "componentType" : 5126,
            "count" : 16322,
            "type" : "VEC2"
        },
        {
            "bufferView" : 3,
            "componentType" : 5123,
            "count" : 24630,
            "type" : "SCALAR"
        },
        {
            "bufferView" : 4,
            "componentType" : 5126,
            "count" : 437,
            "max" : [
                2.64030385017395,
                -0.0179293155670166,
                0.17550840973854065
            ],
            "min" : [
                0.2210637331008911,
                -0.048891305923461914,
                -0.9360734224319458
            ],
            "type" : "VEC3"
        },
        {
            "bufferView" : 5,
            "componentType" : 5126,
            "count" : 437,
            "type" : "VEC3"
        },
        {
            "bufferView" : 6,
            "componentType" : 5126,
            "count" : 437,
            "type" : "VEC2"
        },
        {
            "bufferView" : 7,
            "componentType" : 5123,
            "count" : 645,
            "type" : "SCALAR"
        },
        {
            "bufferView" : 8,
            "componentType" : 5126,
            "count" : 1023,
            "max" : [
                6.936663627624512,
                0.25494861602783203,
                -0.8323206901550293
            ],
            "min" : [
                -4.5781683921813965,
                -2.952005386352539,
                -12.347153663635254
            ],
            "type" : "VEC3"
        },
        {
            "bufferView" : 9,
            "componentType" : 5126,
            "count" : 1023,
            "type" : "VEC3"
        },
        {
            "bufferView" : 10,
            "componentType" : 5126,
            "count" : 1023,
            "type" : "VEC2"
        },
        {
            "bufferView" : 11,
            "componentType" : 5123,
            "count" : 1338,
            "type" : "SCALAR"
        },
        {
            "bufferView" : 12,
            "componentType" : 5126,
            "count" : 437,
            "max" : [
                2.437708854675293,
                -0.05556747317314148,
                0.2992822229862213
            ],
            "min" : [
                0.018468618392944336,
                -0.08652946352958679,
                -0.8122996091842651
            ],
            "type" : "VEC3"
        },
        {
            "bufferView" : 13,
            "componentType" : 5126,
            "count" : 437,
            "type" : "VEC3"
        },
        {
            "bufferView" : 14,
            "componentType" : 5126,
            "count" : 437,
            "type" : "VEC2"
        },
        {
            "bufferView" : 15,
            "componentType" : 5123,
            "count" : 645,
            "type" : "SCALAR"
        },
        {
            "bufferView" : 16,
            "componentType" : 5126,
            "count" : 437,
            "max" : [
                2.5076417922973633,
                -0.05030858516693115,
                0.14557603001594543
            ],
            "min" : [
                0.08840155601501465,
                -0.08127057552337646,
                -0.966005802154541
            ],
            "type" : "VEC3"
        },
        {
            "bufferView" : 17,
            "componentType" : 5126,
            "count" : 437,
            "type" : "VEC3"
        },
        {
            "bufferView" : 18,
            "componentType" : 5126,
            "count" : 437,
            "type" : "VEC2"
        },
        {
            "bufferView" : 19,
            "componentType" : 5126,
            "count" : 886,
            "max" : [
                0.3781811594963074,
                0.06237521395087242,
                0.3861221969127655
            ],
            "min" : [
                -0.3781811594963074,
                -0.04861072078347206,
                -0.3719792664051056
            ],
            "type" : "VEC3"
        },
        {
            "bufferView" : 20,
            "componentType" : 5126,
            "count" : 886,
            "type" : "VEC3"
        },
        {
            "bufferView" : 21,
            "componentType" : 5126,
            "count" : 886,
            "type" : "VEC2"
        },
        {
            "bufferView" : 22,
            "componentType" : 5123,
            "count" : 1470,
            "type" : "SCALAR"
        },
        {
            "bufferView" : 23,
            "componentType" : 5126,
            "count" : 1,
            "max" : [
                0.75
            ],
            "min" : [
                0.75
            ],
            "type" : "SCALAR"
        },
        {
            "bufferView" : 24,
            "componentType" : 5126,
            "count" : 1,
            "type" : "VEC3"
        },
        {
            "bufferView" : 25,
            "componentType" : 5126,
            "count" : 1,
            "type" : "VEC4"
        },
        {
            "bufferView" : 26,
            "componentType" : 5126,
            "count" : 1,
            "type" : "VEC3"
        },
        {
            "bufferView" : 27,
            "componentType" : 5126,
            "count" : 1,
            "type" : "VEC3"
        },
        {
            "bufferView" : 28,
            "componentType" : 5126,
            "count" : 1,
            "type" : "VEC4"
        },
        {
            "bufferView" : 29,
            "componentType" : 5126,
            "count" : 1,
            "type" : "VEC3"
        },
        {
            "bufferView" : 30,
            "componentType" : 5126,
            "count" : 1,
            "type" : "VEC3"
        },
        {
            "bufferView" : 31,
            "componentType" : 5126,
            "count" : 1,
            "type" : "VEC4"
        },
        {
            "bufferView" : 32,
            "componentType" : 5126,
            "count" : 1,
            "type" : "VEC3"
        },
        {
            "bufferView" : 33,
            "componentType" : 5126,
            "count" : 1,
            "type" : "VEC3"
        },
        {
            "bufferView" : 34,
            "componentType" : 5126,
            "count" : 1,
            "type" : "VEC4"
        },
        {
            "bufferView" : 35,
            "componentType" : 5126,
            "count" : 1,
            "type" : "VEC3"
        },
        {
            "bufferView" : 36,
            "componentType" : 5126,
            "count" : 1,
            "type" : "VEC3"
        },
        {
            "bufferView" : 37,
            "componentType" : 5126,
            "count" : 1,
            "type" : "VEC4"
        },
        {
            "bufferView" : 38,
            "componentType" : 5126,
            "count" : 1,
            "type" : "VEC3"
        }
    ],
    "bufferViews" : [
        {
            "buffer" : 0,
            "byteLength" : 195864,
            "byteOffset" : 0
        },
        {
            "buffer" : 0,
            "byteLength" : 195864,
            "byteOffset" : 195864
        },
        {
            "buffer" : 0,
            "byteLength" : 130576,
            "byteOffset" : 391728
        },
        {
            "buffer" : 0,
            "byteLength" : 49260,
            "byteOffset" : 522304
        },
        {
            "buffer" : 0,
            "byteLength" : 5244,
            "byteOffset" : 571564
        },
        {
            "buffer" : 0,
            "byteLength" : 5244,
            "byteOffset" : 576808
        },
        {
            "buffer" : 0,
            "byteLength" : 3496,
            "byteOffset" : 582052
        },
        {
            "buffer" : 0,
            "byteLength" : 1290,
            "byteOffset" : 585548
        },
        {
            "buffer" : 0,
            "byteLength" : 12276,
            "byteOffset" : 586840
        },
        {
            "buffer" : 0,
            "byteLength" : 12276,
            "byteOffset" : 599116
        },
        {
            "buffer" : 0,
            "byteLength" : 8184,
            "byteOffset" : 611392
        },
        {
            "buffer" : 0,
            "byteLength" : 2676,
            "byteOffset" : 619576
        },
        {
            "buffer" : 0,
            "byteLength" : 5244,
            "byteOffset" : 622252
        },
        {
            "buffer" : 0,
            "byteLength" : 5244,
            "byteOffset" : 627496
        },
        {
            "buffer" : 0,
            "byteLength" : 3496,
            "byteOffset" : 632740
        },
        {
            "buffer" : 0,
            "byteLength" : 1290,
            "byteOffset" : 636236
        },
        {
            "buffer" : 0,
            "byteLength" : 5244,
            "byteOffset" : 637528
        },
        {
            "buffer" : 0,
            "byteLength" : 5244,
            "byteOffset" : 642772
        },
        {
            "buffer" : 0,
            "byteLength" : 3496,
            "byteOffset" : 648016
        },
        {
            "buffer" : 0,
            "byteLength" : 10632,
            "byteOffset" : 651512
        },
        {
            "buffer" : 0,
            "byteLength" : 10632,
            "byteOffset" : 662144
        },
        {
            "buffer" : 0,
            "byteLength" : 7088,
            "byteOffset" : 672776
        },
        {
            "buffer" : 0,
            "byteLength" : 2940,
            "byteOffset" : 679864
        },
        {
            "buffer" : 0,
            "byteLength" : 4,
            "byteOffset" : 682804
        },
        {
            "buffer" : 0,
            "byteLength" : 12,
            "byteOffset" : 682808
        },
        {
            "buffer" : 0,
            "byteLength" : 16,
            "byteOffset" : 682820
        },
        {
            "buffer" : 0,
            "byteLength" : 12,
            "byteOffset" : 682836
        },
        {
            "buffer" : 0,
            "byteLength" : 12,
            "byteOffset" : 682848
        },
        {
            "buffer" : 0,
            "byteLength" : 16,
            "byteOffset" : 682860
        },
        {
            "buffer" : 0,
            "byteLength" : 12,
            "byteOffset" : 682876
        },
        {
            "buffer" : 0,
            "byteLength" : 12,
            "byteOffset" : 682888
        },
        {
            "buffer" : 0,
            "byteLength" : 16,
            "byteOffset" : 682900
        },
        {
            "buffer" : 0,
            "byteLength" : 12,
            "byteOffset" : 682916
        },
        {
            "buffer" : 0,
            "byteLength" : 12,
            "byteOffset" : 682928
        },
        {
            "buffer" : 0,
            "byteLength" : 16,
            "byteOffset" : 682940
        },
        {
            "buffer" : 0,
            "byteLength" : 12,
            "byteOffset" : 682956
        },
        {
            "buffer" : 0,
            "byteLength" : 12,
            "byteOffset" : 682968
        },
        {
            "buffer" : 0,
            "byteLength" : 16,
            "byteOffset" : 682980
        },
        {
            "buffer" : 0,
            "byteLength" : 12,
            "byteOffset" : 682996
        }
    ],
    "buffers" : [
        {
            "byteLength" : 683008,
            "uri" : "data:application/octet-stream;base64,"
        }
    ]
}
