{
    "asset" : {
        "copyright" : "wildVeli",
        "generator" : "Khronos glTF Blender I/O v3.2.43",
        "version" : "2.0"
    },
    "scene" : 0,
    "scenes" : [
        {
            "name" : "Scene",
            "nodes" : [
                0,
                1,
                2,
                3,
                4
            ]
        }
    ],
    "nodes" : [
        {
            "mesh" : 0,
            "name" : "Tank",
            "scale" : [
                3.062227964401245,
                3.062227964401245,
                6.1561713218688965
            ],
            "translation" : [
                -0.07537391036748886,
                1.9954802989959717,
                0
            ]
        },
        {
            "mesh" : 1,
            "name" : "Cube.001",
            "rotation" : [
                0.006876497529447079,
                0,
                0,
                0.9999763369560242
            ],
            "scale" : [
                3.062227964401245,
                3.062227964401245,
                8.595664978027344
            ],
            "translation" : [
                -0.0791187584400177,
                0.9766493439674377,
                -4.870635509490967
            ]
        },
        {
            "mesh" : 2,
            "name" : "Canon",
            "scale" : [
                0.5551117658615112,
                0.5551117658615112,
                0.5551117658615112
            ],
            "translation" : [
                0.6830639839172363,
                1.7374274730682373,
                1.9020085334777832
            ]
        },
        {
            "name" : "Circle.008",
            "rotation" : [
                0,
                0,
                -0.7071067094802856,
                0.7071068286895752
            ],
            "scale" : [
                0.9247022271156311,
                0.9247022271156311,
                0.9247022271156311
            ],
            "translation" : [
                -2.0605034828186035,
                -0.6950525641441345,
                -1.365844964981079
            ]
        },
        {
            "name" : "NurbsPath",
            "rotation" : [
                0.5000000596046448,
                0.5000000596046448,
                -0.4999999701976776,
                0.5
            ],
            "translation" : [
                -2.0354325771331787,
                -1.0092847347259521,
                2.1497581005096436
            ]
        }
    ],
    "materials" : [
        {
            "doubleSided" : true,
            "name" : "Material",
            "pbrMetallicRoughness" : {
                "baseColorFactor" : [
                    0.3245178163051605,
                    0.19313231110572815,
                    0.038554467260837555,
                    1
                ],
                "metallicFactor" : 0,
                "roughnessFactor" : 0.4000000059604645
            }
        },
        {
            "doubleSided" : true,
            "name" : "Material.001",
            "pbrMetallicRoughness" : {
                "baseColorFactor" : [
                    0.3185468912124634,
                    0.20507875084877014,
                    0.04373503103852272,
                    1
                ],
                "metallicFactor" : 0,
                "roughnessFactor" : 0.5
            }
        }
    ],
    "meshes" : [
        {
            "name" : "Cube",
            "primitives" : [
                {
                    "attributes" : {
                        "POSITION" : 0,
                        "NORMAL" : 1,
                        "TEXCOORD_0" : 2
                    },
                    "indices" : 3,
                    "material" : 0
                }
            ]
        },
        {
            "name" : "Cube.001",
            "primitives" : [
                {
                    "attributes" : {
                        "POSITION" : 4,
                        "NORMAL" : 5,
                        "TEXCOORD_0" : 6
                    },
                    "indices" : 7,
                    "material" : 0
                }
            ]
        },
        {
            "name" : "Cube.003",
            "primitives" : [
                {
                    "attributes" : {
                        "POSITION" : 8,
                        "NORMAL" : 9,
                        "TEXCOORD_0" : 10
                    },
                    "indices" : 11,
                    "material" : 1
                }
            ]
        }
    ],
    "accessors" : [
        {
            "bufferView" : 0,
            "componentType" : 5126,
            "count" : 5400,
            "max" : [
                0.7176467180252075,
                0.4894407391548157,
                1.2122046947479248
            ],
            "min" : [
                -0.7176467180252075,
                -0.9854546785354614,
                -0.7864872813224792
            ],
            "type" : "VEC3"
        },
        {
            "bufferView" : 1,
            "componentType" : 5126,
            "count" : 5400,
            "type" : "VEC3"
        },
        {
            "bufferView" : 2,
            "componentType" : 5126,
            "count" : 5400,
            "type" : "VEC2"
        },
        {
            "bufferView" : 3,
            "componentType" : 5123,
            "count" : 10284,
            "type" : "SCALAR"
        },
        {
            "bufferView" : 4,
            "componentType" : 5126,
            "count" : 821,
            "max" : [
                0.32664257287979126,
                0.3301782011985779,
                0.024044310674071312
            ],
            "min" : [
                -0.32647669315338135,
                -0.3229410648345947,
                0.007604837417602539
            ],
            "type" : "VEC3"
        },
        {
            "bufferView" : 5,
            "componentType" : 5126,
            "count" : 821,
            "type" : "VEC3"
        },
        {
            "bufferView" : 6,
            "componentType" : 5126,
            "count" : 821,
            "type" : "VEC2"
        },
        {
            "bufferView" : 7,
            "componentType" : 5123,
            "count" : 1449,
            "type" : "SCALAR"
        },
        {
            "bufferView" : 8,
            "componentType" : 5126,
            "count" : 328,
            "max" : [
                1.1855278015136719,
                1.3320908546447754,
                8.322978973388672
            ],
            "min" : [
                -0.8144721388816833,
                -1.396005392074585,
                0.8414090871810913
            ],
            "type" : "VEC3"
        },
        {
            "bufferView" : 9,
            "componentType" : 5126,
            "count" : 328,
            "type" : "VEC3"
        },
        {
            "bufferView" : 10,
            "componentType" : 5126,
            "count" : 328,
            "type" : "VEC2"
        },
        {
            "bufferView" : 11,
            "componentType" : 5123,
            "count" : 588,
            "type" : "SCALAR"
        }
    ],
    "bufferViews" : [
        {
            "buffer" : 0,
            "byteLength" : 64800,
            "byteOffset" : 0
        },
        {
            "buffer" : 0,
            "byteLength" : 64800,
            "byteOffset" : 64800
        },
        {
            "buffer" : 0,
            "byteLength" : 43200,
            "byteOffset" : 129600
        },
        {
            "buffer" : 0,
            "byteLength" : 20568,
            "byteOffset" : 172800
        },
        {
            "buffer" : 0,
            "byteLength" : 9852,
            "byteOffset" : 193368
        },
        {
            "buffer" : 0,
            "byteLength" : 9852,
            "byteOffset" : 203220
        },
        {
            "buffer" : 0,
            "byteLength" : 6568,
            "byteOffset" : 213072
        },
        {
            "buffer" : 0,
            "byteLength" : 2898,
            "byteOffset" : 219640
        },
        {
            "buffer" : 0,
            "byteLength" : 3936,
            "byteOffset" : 222540
        },
        {
            "buffer" : 0,
            "byteLength" : 3936,
            "byteOffset" : 226476
        },
        {
            "buffer" : 0,
            "byteLength" : 2624,
            "byteOffset" : 230412
        },
        {
            "buffer" : 0,
            "byteLength" : 1176,
            "byteOffset" : 233036
        }
    ],
    "buffers" : [
        {
            "byteLength" : 234212,
            "uri" : "data:application/octet-stream;base64,"
        }
    ]
}
