{
    "asset" : {
        "copyright" : "wildVeli",
        "generator" : "Khronos glTF Blender I/O v3.2.43",
        "version" : "2.0"
    },
    "scene" : 0,
    "scenes" : [
        {
            "name" : "Scene",
            "nodes" : [
                0
            ]
        }
    ],
    "nodes" : [
        {
            "mesh" : 0,
            "name" : "Cube",
            "scale" : [
                -1.2342147827148438,
                -1.568320631980896,
                -5.013241767883301
            ],
            "translation" : [
                -0.3559010922908783,
                2.330897331237793,
                0.13189342617988586
            ]
        }
    ],
    "materials" : [
        {
            "doubleSided" : true,
            "name" : "Material.002",
            "pbrMetallicRoughness" : {
                "baseColorTexture" : {
                    "index" : 0
                },
                "metallicFactor" : 0,
                "roughnessFactor" : 0.5
            }
        }
    ],
    "meshes" : [
        {
            "name" : "Cube",
            "primitives" : [
                {
                    "attributes" : {
                        "POSITION" : 0,
                        "NORMAL" : 1,
                        "TEXCOORD_0" : 2
                    },
                    "indices" : 3,
                    "material" : 0
                }
            ]
        }
    ],
    "textures" : [
        {
            "sampler" : 0,
            "source" : 0
        }
    ],
    "images" : [
        {
            "bufferView" : 4,
            "mimeType" : "image/png",
            "name" : "Material"
        }
    ],
    "accessors" : [
        {
            "bufferView" : 0,
            "componentType" : 5126,
            "count" : 595,
            "max" : [
                1.1062465906143188,
                1.500854253768921,
                0.8096467852592468
            ],
            "min" : [
                -1,
                -1.2948142290115356,
                -0.9696541428565979
            ],
            "type" : "VEC3"
        },
        {
            "bufferView" : 1,
            "componentType" : 5126,
            "count" : 595,
            "type" : "VEC3"
        },
        {
            "bufferView" : 2,
            "componentType" : 5126,
            "count" : 595,
            "type" : "VEC2"
        },
        {
            "bufferView" : 3,
            "componentType" : 5123,
            "count" : 921,
            "type" : "SCALAR"
        }
    ],
    "bufferViews" : [
        {
            "buffer" : 0,
            "byteLength" : 7140,
            "byteOffset" : 0
        },
        {
            "buffer" : 0,
            "byteLength" : 7140,
            "byteOffset" : 7140
        },
        {
            "buffer" : 0,
            "byteLength" : 4760,
            "byteOffset" : 14280
        },
        {
            "buffer" : 0,
            "byteLength" : 1842,
            "byteOffset" : 19040
        },
        {
            "buffer" : 0,
            "byteLength" : 289170,
            "byteOffset" : 20884
        }
    ],
    "samplers" : [
        {
            "magFilter" : 9729,
            "minFilter" : 9987
        }
    ],
    "buffers" : [
        {
            "byteLength" : 310056,
            "uri" : "data:application/octet-stream;base64,"
        }
    ]
}
